<?xml version="1.0" standalone="no"?><!DOCTYPE svg PUBLIC "-//W3C//DTD SVG 1.1//EN" "http://www.w3.org/Graphics/SVG/1.1/DTD/svg11.dtd"><svg width="32" height="32" viewBox="0 0 32 32" version="1.1" xmlns="http://www.w3.org/2000/svg" xmlns:xlink="http://www.w3.org/1999/xlink"><defs><style type="text/css"><![CDATA[
@font-face { font-family: ifont; src: url(http://at.alicdn.com/t/font_1442373896_4754455.eot?#iefix) format(embedded-opentype), url(http://at.alicdn.com/t/font_1442373896_4754455.woff) format(woff), url(http://at.alicdn.com/t/font_1442373896_4754455.ttf) format(truetype), url(http://at.alicdn.com/t/font_1442373896_4754455.svg#ifont) format(svg); }

]]></style></defs><g class="transform-group"><g transform="scale(0.03125, 0.03125)"><path d="M459.496717 363.768981M594.590532 198.61657 669.487336 25.02393c0 0-47.270607 36.891212-74.896804 36.891212-27.665083 0-71.429843-35.824927-71.429843-35.824927s-47.237861 35.824927-74.883501 35.824927c-27.66406 0-72.615854-34.691103-72.615854-34.691103l76.04393 171.392532L594.590532 198.61657zM449.411011 215.968773l147.473773 0 0 52.083216L449.411011 268.051989 449.411011 215.968773 449.411011 215.968773zM879.877043 613.941763l0.066515 0c-70.343091-185.323822-283.387255-328.537572-283.387255-328.537572L449.411011 285.404192c0 0-321.763284 171.547051-321.763284 437.719226 0 266.159896 334.063425 273.812179 334.063425 273.812179s65.523319 4.587482 121.334439 0c0 1.215688 90.014106-7.79657 174.436868-52.036143C962.553021 838.979076 879.877043 613.941763 879.877043 613.941763zM634.354164 647.888923l0 52.335972-89.034802 0 0 28.470425 89.034802 0 0 52.333926-89.034802 0 0 64.649416-66.61007 0 0-64.649416-87.862094 0 0-52.333926 87.862094 0 0-28.470425-87.862094 0L390.847198 647.888923l61.84351 0L379.015731 498.386958l72.949452 0 47.358611 100.95632c6.019087 12.653181 10.278087 23.725354 12.825097 33.390481 2.993171-10.466376 7.261381-21.570271 12.793374-33.390481l48.298006-100.95632 73.001641 0L571.591725 647.888923 634.354164 647.888923z" fill="#007fdb"></path></g></g></svg>