<?xml version="1.0" standalone="no"?><!DOCTYPE svg PUBLIC "-//W3C//DTD SVG 1.1//EN" "http://www.w3.org/Graphics/SVG/1.1/DTD/svg11.dtd"><svg width="32" height="32" viewBox="0 0 32 32" version="1.1" xmlns="http://www.w3.org/2000/svg" xmlns:xlink="http://www.w3.org/1999/xlink"><defs><style type="text/css"><![CDATA[
@font-face { font-family: ifont; src: url(http://at.alicdn.com/t/font_1442373896_4754455.eot?#iefix) format(embedded-opentype), url(http://at.alicdn.com/t/font_1442373896_4754455.woff) format(woff), url(http://at.alicdn.com/t/font_1442373896_4754455.ttf) format(truetype), url(http://at.alicdn.com/t/font_1442373896_4754455.svg#ifont) format(svg); }

]]></style></defs><g class="transform-group"><g transform="scale(0.03125, 0.03125)"><path d="M420.096 90.24l180.032 0 0 663.552-180.032 0 0-663.552ZM180.224 397.632l179.968 0 0 356.16-179.968 0 0-356.16ZM660.032 278.656l180.032 0 0 475.2-180.032 0 0-475.2ZM64 816.64l896 0 0 117.12-896 0 0-117.12ZM485.76 159.616l114.368 0 0 594.24-114.368 0 0-594.24ZM245.824 465.152l114.368 0 0 288.704-114.368 0 0-288.704ZM725.696 341.44l114.368 0 0 412.352-114.368 0 0-412.352ZM123.072 875.648l836.928 0 0 58.112-836.928 0 0-58.112Z" fill="#007fdb"></path></g></g></svg>