<?xml version="1.0" standalone="no"?><!DOCTYPE svg PUBLIC "-//W3C//DTD SVG 1.1//EN" "http://www.w3.org/Graphics/SVG/1.1/DTD/svg11.dtd"><svg width="32" height="32" viewBox="0 0 32 32" version="1.1" xmlns="http://www.w3.org/2000/svg" xmlns:xlink="http://www.w3.org/1999/xlink"><defs><style type="text/css"><![CDATA[
@font-face { font-family: ifont; src: url(http://at.alicdn.com/t/font_1442373896_4754455.eot?#iefix) format(embedded-opentype), url(http://at.alicdn.com/t/font_1442373896_4754455.woff) format(woff), url(http://at.alicdn.com/t/font_1442373896_4754455.ttf) format(truetype), url(http://at.alicdn.com/t/font_1442373896_4754455.svg#ifont) format(svg); }

]]></style></defs><g class="transform-group"><g transform="scale(0.03125, 0.03125)"><path d="M367.434463 132.394333c-18.942421 0.451278-57.240679 3.028986-67.853387 6.939039-10.612709 3.90903-28.484751 16.756639-11.728112 43.002396 16.752546 26.250874 69.808926 102.202707 69.808926 102.202707l194.911178 0c0 0 67.578118-96.618525 72.043826-106.667392 4.468778-10.05296 11.727089-32.95353-14.518668-37.977963-26.249851-5.024433-43.562145-11.084453-58.084906-8.334829-14.517645 2.750647-36.222993 19.822464-92.148723 22.200628C405.133064 156.090011 396.47487 131.710764 367.434463 132.394333L367.434463 132.394333zM544.19526 601.027639M574.35107 680.293961c0-85.296665 59.981093-156.570965 140.062989-173.978427-77.17673-109.128443-161.066349-165.863608-161.066349-165.863608l-200.215998 0c0 0-156.653853 103.877859-241.264902 316.65801-19.718087 49.590442-5.915733 115.681696 21.782096 149.954267 49.425689 61.153802 112.654756 54.451146 118.955252 54.451146l413.83526 0c6.010901 0 23.37436-1.533936 43.799552-8.202822C632.256898 834.372152 574.35107 764.101715 574.35107 680.293961zM535.575952 716.446345c-14.710027 16.47216-35.920094 26.195615-63.696718 29.116131l0 42.234917-35.369555 0 0-42.053792c-46.252417-4.744048-74.879408-31.66621-85.941348-80.652901l54.698786-14.282285c5.046946 30.810726 21.823028 46.2473 50.325176 46.2473 13.30912 0 23.152303-3.28072 29.414937-9.905604 6.258541-6.623861 9.420557-14.524808 9.420557-23.882943 0-9.667174-3.160993-17.017582-9.420557-21.941732-6.262634-4.984524-20.23588-11.305487-41.87369-18.962887-19.447934-6.747681-34.643008-13.370519-45.582151-20.055778-10.939143-6.562463-19.814278-15.741519-26.622334-27.592428-6.866385-11.912307-10.269901-25.767873-10.269901-41.512463 0-20.663622 6.138814-39.319517 18.293645-55.852052 12.213159-16.533558 31.357172-26.622334 57.552787-30.325679l0-32.634258 35.374672 0 0 32.634258c39.504736 4.743024 65.153906 27.111474 76.82062 67.101257l-48.802496 19.99438c-9.480932-27.411303-24.12956-41.148166-44.062542-41.148166-9.965979 0-17.989723 3.043313-24.006763 9.178033-6.077416 6.139837-9.116635 13.556761-9.116635 22.307052 0 8.874111 2.916423 15.683191 8.752338 20.478404 5.834892 4.744048 18.290575 10.640338 37.437657 17.630542 20.964474 7.659447 37.497009 14.95255 49.41034 21.756513 11.979846 6.80294 21.456684 16.285918 28.632107 28.260647 7.106862 12.031011 10.691503 26.071795 10.691503 42.177612C557.635363 679.434383 550.287001 699.974186 535.575952 716.446345zM760.12924 514.444679c-91.338265 0-165.380608 74.04132-165.380608 165.374468 0 91.338265 74.04132 165.380608 165.380608 165.380608 91.333148 0 165.376515-74.04132 165.376515-165.380608C925.505755 588.487022 851.462389 514.444679 760.12924 514.444679L760.12924 514.444679zM848.870354 769.109776c-23.701818 23.690562-55.202253 36.740786-88.718601 36.740786-33.505092 0-65.011666-13.050224-88.713484-36.740786-23.696702-23.701818-36.746926-55.208393-36.746926-88.718601 0-33.505092 13.050224-65.016783 36.746926-88.713484 23.701818-23.694655 55.202253-36.746926 88.713484-36.746926 33.516348 0 65.016783 13.051247 88.713484 36.746926 23.694655 23.695678 36.746926 55.202253 36.746926 88.713484S872.559892 745.407957 848.870354 769.109776L848.870354 769.109776zM848.870354 769.109776M844.75257 635.760698l-14.340613 14.026458-39.276539-38.96136 14.341636-14.025435c4.360308-4.362354 11.218506-4.988618 14.95869-1.249457l25.873274 25.251104C849.741187 624.537076 849.117994 631.394251 844.75257 635.760698L844.75257 635.760698 844.75257 635.760698 844.75257 635.760698 844.75257 635.760698 844.75257 635.760698zM784.281313 617.367793l-66.707284 65.147766-9.355065 10.278087-18.079774 16.517185c-0.618077 0.316202-1.865487 2.181689-2.175549 3.744277-0.311085 0.315178-0.311085 0.315178-0.311085 0.623193l-15.589047 48.313356c-0.617054 1.563612-0.306992 2.812045 0.627287 3.745301 0.936325 0.936325 2.494821 0.936325 3.743254 0.62524l49.247634-15.274892c0.315178-0.311085 0.315178-0.311085 0.627287-0.311085 1.865487-0.310062 3.118014-1.558495 3.429099-1.86958l94.132914-92.889597L784.281313 617.367793zM696.996364 752.339834l-10.286274-10.286274 6.547113-20.262486 24.317848 23.997554L696.996364 752.339834zM782.722818 637.630279l-73.565483 72.315002c-1.242294 1.24434-3.739161 1.24434-4.986571 0-1.559519-1.24741-1.559519-3.743254 0-4.987594l73.879638-72.316026c1.242294-1.242294 3.739161-1.242294 4.987594 0C784.281313 634.20118 784.281313 636.381845 782.722818 637.630279z" fill="#007fdb"></path></g></g></svg>